<svg width="35" height="32" viewBox="0 0 35 32" fill="none" xmlns="http://www.w3.org/2000/svg">
<g clip-path="url(#clip0_1_893)">
<path d="M17.5 2.66667C9.45 2.66667 2.91667 8.64 2.91667 16C2.91667 23.36 9.45 29.3333 17.5 29.3333C25.55 29.3333 32.0833 23.36 32.0833 16C32.0833 8.64 25.55 2.66667 17.5 2.66667ZM17.5 6.66667C19.9208 6.66667 21.875 8.45333 21.875 10.6667C21.875 12.88 19.9208 14.6667 17.5 14.6667C15.0792 14.6667 13.125 12.88 13.125 10.6667C13.125 8.45333 15.0792 6.66667 17.5 6.66667ZM17.5 25.6C13.8542 25.6 10.6313 23.8933 8.75 21.3067C8.79375 18.6533 14.5833 17.2 17.5 17.2C20.4021 17.2 26.2062 18.6533 26.25 21.3067C24.3687 23.8933 21.1458 25.6 17.5 25.6Z" fill="white" fill-opacity="0.9"/>
</g>
<defs>
<clipPath id="clip0_1_893">
<rect width="35" height="32" fill="white"/>
</clipPath>
</defs>
</svg>
