<svg width="118" height="95" viewBox="0 0 118 95" fill="none" xmlns="http://www.w3.org/2000/svg">
<path d="M117.98 80.5957C117.963 80.3248 117.865 80.0437 117.628 79.7849L103.656 64.6064V25.0216C103.656 21.3899 99.9854 18.4351 95.4726 18.4351H91.8563V10.169C91.8563 7.4561 89.1149 5.24902 85.7452 5.24902H62.755C56.4224 5.24902 51.2708 9.39655 51.2708 14.4948V18.4351H22.5442C18.0333 18.4351 14.363 21.3899 14.363 25.0216V64.6064L0.391106 79.7849C0.106938 80.0944 -0.0218944 80.6319 0.0170548 81.3019C0.188985 84.2458 3.60269 89.7508 11.3245 89.7508H106.709C113.265 89.751 118.244 85.2219 117.98 80.5957ZM5.53724 79.1791L17.1351 66.5814H100.884L112.482 79.1791H5.53724ZM27.5007 63.6133C28.4062 58.123 34.238 53.869 41.2915 53.869C48.3549 53.869 54.195 58.1228 55.1019 63.6133H27.5007ZM54.9573 14.4946C54.9573 11.0325 58.4547 8.21685 62.755 8.21685H85.7452C87.0826 8.21685 88.17 9.09207 88.17 10.169V18.6613C88.17 22.1234 84.6726 24.9391 80.3723 24.9391H60.4909C59.832 24.9391 59.2219 25.2231 58.8924 25.684L54.9576 31.1924V14.4946H54.9573ZM18.0494 25.0216C18.0494 23.0261 20.0655 21.4031 22.544 21.4031H51.2708V31.772C51.2708 34.6504 56.012 35.6696 57.7942 33.1748L61.5564 27.9069H80.3723C85.5196 27.9069 89.8863 25.1666 91.3408 21.4029H95.4728C97.9515 21.4029 99.9693 23.0261 99.9693 25.0215V63.6132H58.8269C57.9023 56.48 50.3927 50.901 41.2915 50.901C32.202 50.901 24.6993 56.48 23.7758 63.6132H18.0494V25.0216ZM106.709 86.783H11.3245C7.77025 86.783 4.77923 84.8089 3.95231 82.1528H114.081C113.254 84.8089 110.263 86.783 106.709 86.783Z" fill="#2774AC"/>
<path d="M79.6917 71.3984H38.3269C37.308 71.3984 36.4837 72.0621 36.4837 72.8824C36.4837 73.7027 37.308 74.3664 38.3269 74.3664H79.6919C80.7108 74.3664 81.5352 73.7027 81.5352 72.8824C81.5352 72.0621 80.7106 71.3984 79.6917 71.3984ZM41.3005 47.7434C45.6061 47.7434 49.109 44.9233 49.109 41.4569V37.8484C49.109 34.382 45.6061 31.5619 41.3005 31.5619C36.9948 31.5619 33.4919 34.382 33.4919 37.8484V41.4569C33.4919 44.9233 36.9948 47.7434 41.3005 47.7434ZM37.1785 37.8484C37.1785 36.0182 39.0271 34.5297 41.3007 34.5297C43.574 34.5297 45.4229 36.018 45.4229 37.8484V41.4569C45.4229 43.2871 43.5743 44.7756 41.3007 44.7756C39.0273 44.7756 37.1785 43.2873 37.1785 41.4569V37.8484ZM62.4331 15.0339H80.6926C81.7115 15.0339 82.5359 14.3702 82.5359 13.5499C82.5359 12.7296 81.7115 12.0659 80.6926 12.0659H62.4331C61.4142 12.0659 60.5898 12.7296 60.5898 13.5499C60.5898 14.3702 61.4142 15.0339 62.4331 15.0339ZM62.4331 21.09H75.9729C76.9918 21.09 77.8162 20.4263 77.8162 19.606C77.8162 18.7857 76.9918 18.122 75.9729 18.122H62.4331C61.4142 18.122 60.5898 18.7857 60.5898 19.606C60.5898 20.4263 61.4142 21.09 62.4331 21.09Z" fill="#2774AC"/>
</svg>
