<svg width="102" height="91" viewBox="0 0 102 91" fill="none" xmlns="http://www.w3.org/2000/svg">
<path d="M46.8986 72.2039C46.6449 72.2038 46.3948 72.151 46.1681 72.0495C45.9413 71.9481 45.7442 71.801 45.5923 71.6197C45.4404 71.4385 45.338 71.2281 45.2931 71.0054C45.2483 70.7827 45.2622 70.5537 45.3339 70.3366L50.8195 53.6982L36.3844 55.7666C36.0941 55.8083 35.7966 55.7792 35.5233 55.6824C35.2501 55.5857 35.0111 55.4249 34.8318 55.217C34.6525 55.0091 34.5395 54.7619 34.5047 54.5014C34.4699 54.241 34.5146 53.977 34.6341 53.7373L47.7707 27.3828C47.9465 27.0299 48.2723 26.7539 48.6763 26.6153C49.0803 26.4767 49.5294 26.487 49.9249 26.6439L55.7675 28.9616C56.163 29.1185 56.4724 29.4091 56.6277 29.7696C56.7831 30.13 56.7716 30.5307 56.5957 30.8836L49.5302 45.0595L63.546 43.0512C63.8504 43.0075 64.1624 43.0417 64.4459 43.1497C64.7293 43.2578 64.9728 43.4352 65.1479 43.6615C65.323 43.8879 65.4227 44.1538 65.4355 44.4286C65.4482 44.7034 65.3734 44.9758 65.2198 45.2142L48.3143 71.4732C48.1713 71.6954 47.9651 71.8799 47.7165 72.0082C47.4679 72.1365 47.1858 72.204 46.8986 72.2039ZM53.1155 50.4386C53.3691 50.4386 53.6192 50.4913 53.846 50.5926C54.0728 50.6939 54.27 50.841 54.4219 51.0221C54.5739 51.2033 54.6765 51.4135 54.7215 51.6362C54.7665 51.8589 54.7527 52.0879 54.6812 52.305L52.3617 59.3402L60.69 46.41L47.074 48.361C46.7837 48.4027 46.4862 48.3736 46.2129 48.2769C45.9397 48.1801 45.7007 48.0193 45.5214 47.8114C45.3421 47.6036 45.2291 47.3563 45.1943 47.0959C45.1595 46.8354 45.2042 46.5714 45.3237 46.3317L52.9502 31.031L50.0942 29.8962L38.8447 52.4642L52.8564 50.4567C52.9421 50.4444 53.0287 50.4383 53.1155 50.4386Z" fill="#2774AC"/>
<path d="M51 83.3561C46.6831 83.3562 42.4084 82.5977 38.4201 81.1239C34.4317 79.6501 30.8078 77.4899 27.7553 74.7666C24.7028 72.0432 22.2814 68.8101 20.6294 65.2519C18.9775 61.6937 18.1273 57.88 18.1274 54.0286C18.1274 47.3228 23.4916 37.5294 34.0731 24.9196C41.8496 15.6521 49.7342 8.17556 49.8127 8.09912C49.9653 7.9548 50.1493 7.83981 50.3535 7.76122C50.5576 7.68263 50.7776 7.64209 51 7.64209C51.2224 7.64209 51.4424 7.68263 51.6465 7.76122C51.8507 7.83981 52.0347 7.9548 52.1873 8.09912C52.2658 8.17374 60.1504 15.6521 67.9269 24.9177C78.5084 37.5294 83.8726 47.3201 83.8726 54.0286C83.8727 57.88 83.0225 61.6937 81.3706 65.2519C79.7186 68.8101 77.2972 72.0432 74.2447 74.7666C71.1922 77.4899 67.5683 79.6501 63.5799 81.1239C59.5916 82.5977 55.3169 83.3562 51 83.3561ZM51 11.2477C48.5275 13.6692 42.5656 19.6561 36.668 26.6859C26.672 38.6005 21.3914 48.0554 21.3914 54.0286C21.3914 68.5941 34.6739 80.4441 51 80.4441C67.3261 80.4441 80.6086 68.5941 80.6086 54.0286C80.6086 48.0518 75.3199 38.5887 65.3137 26.664C59.4191 19.6388 53.4694 13.6656 51 11.2477Z" fill="#2774AC"/>
</svg>
