<svg width="105" height="98" viewBox="0 0 105 98" fill="none" xmlns="http://www.w3.org/2000/svg">
<path d="M30.03 65.856C30.135 65.856 30.24 65.856 30.345 65.758C30.765 65.66 31.08 65.66 31.5 65.66C31.92 65.66 32.34 65.758 32.655 65.758C32.76 65.758 32.865 65.758 32.97 65.856H33.18L35.28 62.426C32.865 61.446 30.135 61.446 27.72 62.426L29.82 65.856H30.03ZM27.51 73.794L27.3 73.598C27.09 73.402 26.985 73.206 26.88 73.01C26.775 72.814 26.67 72.618 26.565 72.324C26.565 72.226 26.46 72.226 26.46 72.128C26.355 71.932 26.355 71.834 26.355 71.638V71.54H22.155C22.47 73.99 23.835 76.244 25.935 77.616L28.035 74.186L27.93 74.088C27.825 73.99 27.72 73.892 27.51 73.794ZM33.075 68.012C32.97 68.012 32.97 68.012 32.865 67.914C31.92 67.424 30.765 67.522 29.925 68.012C28.98 68.502 28.35 69.482 28.35 70.56C28.35 71.638 28.98 72.618 29.925 73.108C30.87 73.598 32.13 73.598 33.075 73.108C33.6 72.814 33.915 72.52 34.23 72.03C34.335 71.834 34.44 71.54 34.545 71.344C34.65 71.05 34.65 70.854 34.65 70.56C34.65 69.482 34.02 68.502 33.075 68.012ZM31.5 23.324L34.545 21.266C34.65 21.168 34.65 21.07 34.65 20.972C34.65 19.698 35.7 18.718 37.065 18.718H51.45C52.08 18.718 52.5 18.326 52.5 17.738V14.798C52.5 13.132 53.865 11.858 55.65 11.858H61.005C62.685 11.858 64.05 13.132 64.05 14.798C64.05 15.288 64.575 15.778 65.1 15.778H78.54C80.115 15.778 81.48 14.798 81.795 13.426C82.005 12.544 81.795 11.662 81.165 10.976C80.535 10.29 79.695 9.89803 78.75 9.89803H75.495C73.815 9.89803 72.45 8.62403 72.45 6.95803C72.45 6.46803 71.925 5.97803 71.4 5.97803H44.1C43.47 5.97803 43.05 6.37003 43.05 6.95803V9.89803C43.05 11.564 41.685 12.838 39.9 12.838H29.4C28.77 12.838 28.35 13.23 28.35 13.818V20.972C28.35 21.07 28.35 21.168 28.455 21.266L31.5 23.324ZM75.705 21.756C75.6 21.854 75.6 21.854 75.6 21.952C75.6 22.638 75.39 23.226 74.865 23.716C74.34 24.206 73.71 24.5 72.975 24.5H69.51C68.355 24.5 67.305 25.284 67.2 26.362C67.2 26.95 67.41 27.44 67.725 27.832C68.145 28.224 68.67 28.42 69.3 28.42C70.875 28.42 72.24 29.302 72.765 30.674L73.605 32.83L74.97 30.282C75.6 29.106 76.86 28.42 78.33 28.42H89.775C89.985 28.42 90.09 28.322 90.195 28.224C90.3 28.126 90.3 28.028 90.3 28.028C90.3 27.342 90.51 26.754 91.035 26.264C91.56 25.774 92.19 25.48 92.925 25.48H96.39C97.545 25.48 98.595 24.696 98.7 23.618C98.7 23.03 98.49 22.54 98.175 22.148C97.755 21.756 97.23 21.56 96.6 21.56H76.23C76.02 21.56 75.81 21.658 75.705 21.756ZM36.435 72.128C36.435 72.226 36.435 72.226 36.33 72.324C36.225 72.52 36.12 72.814 36.015 73.01C35.91 73.206 35.7 73.402 35.595 73.598C35.595 73.696 35.49 73.696 35.49 73.794C35.385 73.892 35.28 74.088 35.07 74.186L34.965 74.284L37.065 77.714C39.165 76.244 40.53 73.99 40.845 71.638H36.645V71.736C36.54 71.834 36.54 72.03 36.435 72.128ZM90.615 72.814V72.716C89.04 64.19 88.2 55.566 88.2 46.844V37.24C88.2 36.652 87.78 36.26 87.15 36.26H59.85C59.22 36.26 58.8 36.652 58.8 37.24V46.844C58.8 55.468 58.065 64.19 56.49 72.618V72.716L54.18 80.458L55.545 88.102H95.235L90.615 72.814Z" fill="#2774AC"/>
<path d="M48.51 61.936C47.04 53.41 46.2 44.688 46.2 36.064V26.46C46.2 25.872 45.78 25.48 45.15 25.48H17.85C17.22 25.48 16.8 25.872 16.8 26.46V36.064C16.8 44.688 15.96 53.41 14.49 61.838L9.66 88.2H53.34L48.51 61.936ZM31.5 85.26C22.785 85.26 15.75 78.694 15.75 70.56C15.75 62.426 22.785 55.86 31.5 55.86C40.215 55.86 47.25 62.426 47.25 70.56C47.25 78.694 40.215 85.26 31.5 85.26ZM96.6 90.16H58.8V92.12H97.65C98.28 92.12 98.7 91.728 98.7 91.14C98.7 90.552 98.28 90.16 97.65 90.16H96.6Z" fill="#2774AC"/>
<path d="M31.5 57.8201C23.94 57.8201 17.85 63.5041 17.85 70.5601C17.85 77.6161 23.94 83.3001 31.5 83.3001C39.06 83.3001 45.15 77.6161 45.15 70.5601C45.15 63.5041 39.06 57.8201 31.5 57.8201ZM43.05 70.5601C43.05 74.3821 40.845 78.0081 37.275 79.8701C37.065 79.9681 36.96 79.9681 36.75 79.9681H36.435C36.12 79.8701 35.91 79.7721 35.805 79.4781L33.075 75.1661C32.55 75.3621 32.025 75.4601 31.395 75.4601C30.87 75.4601 30.24 75.3621 29.715 75.1661L26.985 79.4781C26.88 79.6741 26.565 79.8701 26.355 79.9681H26.04C25.83 79.9681 25.725 79.9681 25.515 79.8701C21.945 77.9101 19.74 74.3821 19.74 70.5601C19.74 69.9721 20.16 69.5801 20.79 69.5801H26.145C26.355 68.5021 26.985 67.6201 27.825 66.9341L25.095 62.6221C24.78 62.1321 24.99 61.5441 25.515 61.2501C28.98 59.3881 33.6 59.3881 37.065 61.2501C37.59 61.5441 37.695 62.1321 37.485 62.6221L34.755 66.9341C35.595 67.6201 36.225 68.6001 36.435 69.5801H42C42.63 69.5801 43.05 69.9721 43.05 70.5601ZM8.4 90.1601H7.35C6.72 90.1601 6.3 90.5521 6.3 91.1401C6.3 91.7281 6.72 92.1201 7.35 92.1201H56.7V90.1601H8.4Z" fill="#2774AC"/>
</svg>
