<svg width="94" height="94" viewBox="0 0 94 94" fill="none" xmlns="http://www.w3.org/2000/svg">
<path d="M23.5 89.5938H2.9375C2.05625 89.5938 1.46875 90.1812 1.46875 91.0625C1.46875 91.9438 2.05625 92.5312 2.9375 92.5312H23.5C24.3813 92.5312 24.9688 91.9438 24.9688 91.0625C24.9688 90.1812 24.3813 89.5938 23.5 89.5938Z" fill="#2774AC"/>
<path d="M79.3125 89.5938H60.2188V80.7812H89.8875C91.3563 80.7812 92.2375 79.4594 92.2375 78.2844V77.8438L91.65 75.6406C91.5031 74.9062 90.6219 74.3187 89.8875 74.6125C89.1531 74.7594 88.5656 75.6406 88.8594 76.375L89.1531 77.6969H71.8219L70.2062 65.9469H85.9219L87.2438 70.7938C87.3906 71.3812 87.9781 71.8219 88.7125 71.8219H89.1531C89.8875 71.675 90.475 70.7938 90.1813 70.0594L80.9281 35.3969C80.9281 35.25 80.9281 35.25 80.7812 35.1031C80.4875 34.5156 79.7531 33.6344 78.725 33.6344H15.275C14.3937 33.6344 13.5125 34.2219 13.0719 35.1031C13.0719 35.25 12.925 35.25 12.925 35.3969L12.1906 37.8937C12.0437 38.6281 12.4844 39.5094 13.2188 39.6562C13.9531 39.8031 14.8344 39.3625 14.9812 38.6281L15.5688 36.5719H27.6125L25.9969 48.3219H12.6313L13.8062 44.0625C13.9531 43.3281 13.5125 42.4469 12.7781 42.3C12.0437 42.1531 11.1625 42.5938 11.0156 43.3281L1.90937 77.8438C1.7625 78.4313 1.7625 79.3125 2.20312 79.9C2.64375 80.4875 3.23125 80.7812 3.96563 80.7812H33.7812V89.5938H29.375C28.4937 89.5938 27.9062 90.1813 27.9062 91.0625C27.9062 91.9437 28.4937 92.5312 29.375 92.5312H47C47.8812 92.5312 48.4688 91.9437 48.4688 91.0625C48.4688 90.1813 47.8812 89.5938 47 89.5938H36.7188V80.7812H57.2812V89.5938H52.875C51.9938 89.5938 51.4062 90.1813 51.4062 91.0625C51.4062 91.9437 51.9938 92.5312 52.875 92.5312H79.3125C80.1937 92.5312 80.7812 91.9437 80.7812 91.0625C80.7812 90.1813 80.1937 89.5938 79.3125 89.5938ZM85.1875 63.1562H69.7656L68.15 51.4062H81.9562L85.1875 63.1562ZM48.4688 36.7188H63.3031L63.5969 38.775C63.7437 39.5094 64.3312 40.0969 65.0656 40.0969H65.2125C65.9469 39.95 66.5344 39.2156 66.5344 38.4813L66.2406 36.7188H78.1375L81.2219 48.4688H67.8563L67.2687 44.2094C67.1219 43.475 66.3875 42.8875 65.6531 42.8875C64.9188 43.0344 64.3312 43.7687 64.3312 44.5031L64.7719 48.3219H48.4688V36.7188ZM30.6969 36.7188H45.5312V48.4688H29.0812L30.6969 36.7188ZM22.1781 77.8438H4.84687L7.93125 66.0938H23.7938L22.1781 77.8438ZM8.66563 63.1562L11.75 51.4062H25.7031L24.0875 63.1562H8.66563ZM45.5312 77.8438H25.1156L26.7313 66.0938H45.5312V77.8438ZM47 59.925C46.1188 59.925 45.5312 60.5125 45.5312 61.3937V63.1562H27.1719L28.7875 51.4062H45.5312V55.9594C45.5312 56.8406 46.1188 57.4281 47 57.4281C47.8812 57.4281 48.4688 56.8406 48.4688 55.9594V51.4062H65.3594L66.975 63.1562H48.4688V61.3937C48.4688 60.6594 47.8812 59.925 47 59.925ZM48.4688 77.8438V66.0938H67.2687L68.8844 77.8438H48.4688ZM91.0625 89.5938H85.1875C84.3063 89.5938 83.7188 90.1813 83.7188 91.0625C83.7188 91.9437 84.3063 92.5312 85.1875 92.5312H91.0625C91.9437 92.5312 92.5312 91.9437 92.5312 91.0625C92.5312 90.1813 91.9437 89.5938 91.0625 89.5938ZM5.875 16.1562C6.75625 16.1562 7.34375 15.5688 7.34375 14.6875C7.34375 13.8062 6.75625 13.2188 5.875 13.2188C4.99375 13.2188 4.40625 12.6313 4.40625 11.75C4.40625 10.8687 4.99375 10.2812 5.875 10.2812C6.75625 10.2812 7.34375 9.69375 7.34375 8.8125C7.34375 7.93125 7.93125 7.34375 8.8125 7.34375H8.95937C9.69375 7.6375 10.575 7.49062 10.8688 6.75625C11.6031 5.2875 13.0719 4.40625 14.6875 4.40625C17.1844 4.40625 19.0938 6.31562 19.0938 8.8125C19.0938 9.69375 19.6812 10.2812 20.5625 10.2812C21.4438 10.2812 22.0312 10.8687 22.0312 11.75C22.0312 12.6313 21.4438 13.2188 20.5625 13.2188H12.0437C11.1625 13.2188 10.575 13.8062 10.575 14.6875C10.575 15.5688 11.1625 16.1562 12.0437 16.1562H20.5625C23.0594 16.1562 24.9688 14.2469 24.9688 11.75C24.9688 9.84062 23.6469 8.07812 21.8844 7.49062C21.2969 4.1125 18.3594 1.46875 14.6875 1.46875C12.3375 1.46875 10.1344 2.49688 8.8125 4.40625C6.90313 4.40625 5.14062 5.72812 4.55312 7.49062C2.79062 8.07812 1.46875 9.69375 1.46875 11.75C1.46875 14.2469 3.37812 16.1562 5.875 16.1562ZM73.4375 16.1562H88.125C90.6219 16.1562 92.5312 14.2469 92.5312 11.75C92.5312 9.25312 90.6219 7.34375 88.125 7.34375C87.2438 7.34375 86.6562 7.93125 86.6562 8.8125C86.6562 9.69375 87.2438 10.2812 88.125 10.2812C89.0062 10.2812 89.5938 10.8687 89.5938 11.75C89.5938 12.6313 89.0062 13.2188 88.125 13.2188H73.4375C72.5563 13.2188 71.9688 12.6313 71.9688 11.75C71.9688 10.8687 72.5563 10.2812 73.4375 10.2812C74.3187 10.2812 74.9062 9.69375 74.9062 8.8125C74.9062 7.93125 75.4938 7.34375 76.375 7.34375H76.5219C77.2562 7.6375 78.1375 7.49062 78.4313 6.75625C79.1656 5.2875 80.6344 4.40625 82.25 4.40625C82.9844 4.40625 83.7188 4.55313 84.3063 4.99375C85.0406 5.43438 85.9219 5.14062 86.3625 4.40625C86.8031 3.67188 86.5094 2.79063 85.775 2.35C84.7469 1.7625 83.425 1.46875 82.25 1.46875C79.9 1.46875 77.6969 2.49688 76.375 4.40625C74.3187 4.40625 72.7031 5.72812 72.1156 7.49062C70.3531 8.07812 69.0312 9.69375 69.0312 11.75C69.0312 14.2469 70.9406 16.1562 73.4375 16.1562ZM38.1875 30.8438C39.0687 30.8438 39.6562 30.2563 39.6562 29.375C39.6562 25.2625 42.8875 22.0312 47 22.0312C51.1125 22.0312 54.3438 25.2625 54.3438 29.375C54.3438 30.2563 54.9313 30.8438 55.8125 30.8438C56.6937 30.8438 57.2812 30.2563 57.2812 29.375C57.2812 23.6469 52.7281 19.0938 47 19.0938C41.2719 19.0938 36.7188 23.6469 36.7188 29.375C36.7188 30.2563 37.3063 30.8438 38.1875 30.8438ZM47 16.1562C47.8812 16.1562 48.4688 15.5688 48.4688 14.6875V11.75C48.4688 10.8687 47.8812 10.2812 47 10.2812C46.1188 10.2812 45.5312 10.8687 45.5312 11.75V14.6875C45.5312 15.5688 46.1188 16.1562 47 16.1562ZM35.5438 19.975C35.8375 20.2688 36.2781 20.4156 36.5719 20.4156C36.8656 20.4156 37.3063 20.2688 37.6 19.975C38.1875 19.3875 38.1875 18.5063 37.6 17.9187L35.5438 15.8625C34.9562 15.275 34.075 15.275 33.4875 15.8625C32.9 16.45 32.9 17.3312 33.4875 17.9187L35.5438 19.975ZM29.375 30.8438H32.3125C33.1938 30.8438 33.7812 30.2563 33.7812 29.375C33.7812 28.4937 33.1938 27.9062 32.3125 27.9062H29.375C28.4937 27.9062 27.9062 28.4937 27.9062 29.375C27.9062 30.2563 28.4937 30.8438 29.375 30.8438ZM60.2188 29.375C60.2188 30.2563 60.8063 30.8438 61.6875 30.8438H64.625C65.5062 30.8438 66.0938 30.2563 66.0938 29.375C66.0938 28.4937 65.5062 27.9062 64.625 27.9062H61.6875C60.8063 27.9062 60.2188 28.4937 60.2188 29.375ZM57.4281 20.4156C57.8687 20.4156 58.1625 20.2688 58.4562 19.975L60.5125 17.9187C61.1 17.3312 61.1 16.45 60.5125 15.8625C59.925 15.275 59.0438 15.275 58.4562 15.8625L56.4 17.9187C55.8125 18.5063 55.8125 19.3875 56.4 19.975C56.6938 20.2688 56.9875 20.4156 57.4281 20.4156Z" fill="#2774AC"/>
<path d="M76.375 73.4376C76.375 74.3188 76.9625 74.9063 77.8438 74.9063H82.8375C83.5719 74.9063 84.1594 74.6126 84.6 74.0251C85.0406 73.4376 85.0406 72.7032 84.8938 72.1157L84.1594 70.0594C83.8656 69.3251 82.9844 68.8844 82.25 69.1782C81.5156 69.4719 81.075 70.3532 81.3688 71.0876L81.6625 72.1157H77.8438C76.9625 71.9688 76.375 72.5563 76.375 73.4376ZM9.84063 74.9063H10.2813C10.8688 74.9063 11.4563 74.4657 11.75 73.8782L12.6313 70.9407C12.925 70.2063 12.4844 69.3251 11.6031 69.1782C10.8688 68.8844 9.98751 69.3251 9.84063 70.2063L8.95938 73.1438C8.66563 73.7313 9.10626 74.6126 9.84063 74.9063ZM55.8125 71.9688H52.875C51.9938 71.9688 51.4063 72.5563 51.4063 73.4376C51.4063 74.3188 51.9938 74.9063 52.875 74.9063H55.8125C56.6938 74.9063 57.2813 74.3188 57.2813 73.4376C57.2813 72.5563 56.6938 71.9688 55.8125 71.9688Z" fill="#2774AC"/>
</svg>
