<svg width="109" height="105" viewBox="0 0 109 105" fill="none" xmlns="http://www.w3.org/2000/svg">
<g clip-path="url(#clip0_137_112)">
<path d="M105.594 42.6562H44.2812C42.4027 42.6562 40.875 44.1279 40.875 45.9375H26.613C25.3255 45.9375 24.1588 46.6413 23.5678 47.7701C19.6898 55.1611 12.0173 57.7205 6.88744 58.6048C8.59056 56.6951 10.3754 53.9224 11.4126 50.0555C11.68 49.0629 11.4569 48.0277 10.8046 47.2155C10.1523 46.4018 9.17133 45.9375 8.11028 45.9375H3.40625V3.28125H64.7188V39.375C64.7188 40.2823 65.48 41.0156 66.4219 41.0156C67.3637 41.0156 68.125 40.2823 68.125 39.375V3.28125C68.125 1.47164 66.5973 0 64.7188 0H3.40625C1.5277 0 0 1.47164 0 3.28125V45.9375C0 47.7471 1.5277 49.2188 3.40625 49.2188L8.11709 49.2335C6.14317 56.5819 1.1445 59.1347 0.941828 59.2364C0.24525 59.5711 -0.126031 60.3192 0.0391719 61.0526C0.206078 61.7843 0.865187 62.3175 1.64352 62.3421C1.69972 62.3454 1.8547 62.3487 2.09995 62.3487C4.97994 62.3487 20.056 61.7351 26.6147 49.2188H40.875V88.5938C40.875 90.4034 42.4027 91.875 44.2812 91.875L82.3614 91.8701C82.3614 91.8701 82.3767 91.8783 82.3904 91.9045L82.3921 91.9078C88.9457 104.393 104.017 105.005 106.9 105.005C107.145 105.005 107.3 105.002 107.358 104.998C108.133 104.972 108.787 104.444 108.956 103.715C109.124 102.987 108.756 102.239 108.068 101.898C107.857 101.793 102.859 99.2398 100.891 91.8766H105.594C107.472 91.8766 109 90.405 109 88.5954V45.9375C109 44.1279 107.472 42.6562 105.594 42.6562ZM105.594 88.5938H100.89C99.8287 88.5938 98.8477 89.058 98.1954 89.8702C97.5414 90.6823 97.3183 91.7175 97.5874 92.7084C98.6246 96.5737 100.409 99.3497 102.113 101.259C96.9827 100.377 89.3119 97.8173 85.4339 90.4263C84.8412 89.2976 83.6745 88.5938 82.387 88.5938H44.2812V45.9375H105.594V88.5938Z" fill="#2774AC"/>
<path d="M58.1089 76.5089C58.596 77.1652 59.5072 77.385 60.2566 77.0224L66.1051 74.2055L75.8044 85.1074C76.3852 85.7637 77.4019 85.8736 78.1172 85.3519L83.5213 81.4472L87.2409 85.9245C87.5781 86.3297 88.072 86.5397 88.5727 86.5397C88.9457 86.5397 89.3204 86.4232 89.6355 86.1804L94.9543 82.0821C95.3069 81.8098 95.5334 81.4144 95.5828 80.9813C95.6322 80.5481 95.501 80.115 95.22 79.7754L94.9731 79.4784L101.792 71.5952C102.215 71.1047 102.307 70.4238 102.026 69.8496C101.746 69.2754 101.145 68.9062 100.484 68.9062H97.0781V50.8594C97.0781 49.9521 96.3168 49.2188 95.375 49.2188H88.5625C87.6207 49.2188 86.8594 49.9521 86.8594 50.8594V68.9062H83.4531C82.7923 68.9062 82.1911 69.2754 81.9118 69.8512C81.825 70.0301 81.7858 70.2204 81.7688 70.4107L78.3693 72.8651L69.5335 62.9377C69.0243 62.3634 68.1761 62.201 67.4795 62.5373L62.193 65.0852L56.2151 57.0232C55.6684 56.2866 54.6039 56.1127 53.8392 56.6426L48.2938 60.4554C47.926 60.7064 47.679 61.092 47.6041 61.5202C47.5291 61.9484 47.6364 62.388 47.8987 62.7424L58.1089 76.5089ZM88.5625 72.1875C89.5043 72.1875 90.2656 71.4541 90.2656 70.5469V52.5H93.6719V70.5469C93.6719 71.4541 94.4332 72.1875 95.375 72.1875H96.8482L91.9688 77.828L87.0893 72.1875H88.5625ZM54.4353 60.2634L60.2685 68.1319C60.7556 68.7881 61.6668 69.008 62.4161 68.6454L67.815 66.045L76.8229 76.166C77.4036 76.8239 78.4204 76.9338 79.1357 76.4105L83.5502 73.2211L90.5296 81.288L88.8367 82.5923L85.1512 78.1528C84.5755 77.4605 83.5315 77.3341 82.7991 77.8657L77.3508 81.8016L67.8236 71.0965C67.316 70.5239 66.4679 70.3598 65.7696 70.6962L60.0352 73.459L51.6626 62.1682L54.4353 60.2634ZM13.625 42.6562H20.4375C21.3793 42.6562 22.1406 41.9229 22.1406 41.0156V37.4112L23.0365 36.3316L28.4405 40.2363C28.7454 40.4578 29.1047 40.5645 29.4607 40.5645C29.9427 40.5645 30.4195 40.3692 30.755 39.9902L40.4543 29.0883L46.3029 31.9052C47.0437 32.2613 47.9362 32.0545 48.4301 31.418L60.3417 16.0125C60.6159 15.6581 60.73 15.2135 60.6602 14.7788C60.5887 14.3423 60.34 13.9519 59.967 13.6976L54.4217 9.88477C53.6723 9.36797 52.6317 9.51891 52.0748 10.2293L44.4022 19.9861L39.0799 17.4218C38.385 17.0871 37.5352 17.2512 37.026 17.8221L28.1901 27.7495L22.5647 23.6873C22.4336 23.5922 22.2854 23.5446 22.1406 23.4905V19.6875H25.5469C26.2077 19.6875 26.8089 19.3184 27.0882 18.7425C27.3692 18.1666 27.2773 17.4858 26.8549 16.9969L18.3393 7.15312C17.6904 6.40664 16.3705 6.40664 15.7216 7.15312L7.20594 16.9969C6.78356 17.4874 6.69159 18.1683 6.97261 18.7425C7.25362 19.3184 7.85483 19.6875 8.51564 19.6875H11.9219V41.0156C11.9219 41.9229 12.6832 42.6562 13.625 42.6562ZM27.4237 31.2949C28.1407 31.815 29.1575 31.7067 29.7366 31.0505L38.7444 20.9295L44.1433 23.5298C44.8825 23.8859 45.7681 23.6824 46.262 23.0524L53.7881 13.481L56.5727 15.394L46.5498 28.3566L40.7882 25.5823C40.0899 25.2459 39.2417 25.4116 38.7342 25.9826L29.2069 36.6877L23.7586 32.7518C23.2749 32.4023 22.6686 32.3646 22.1406 32.5566V27.4805L27.4237 31.2949ZM17.0313 10.7658L21.9107 16.4062H20.4375C19.4957 16.4062 18.7344 17.1396 18.7344 18.0469V39.375H15.3281V18.0469C15.3281 17.1396 14.5668 16.4062 13.625 16.4062H12.1518L17.0313 10.7658Z" fill="#2774AC"/>
<path d="M74.9375 59.0625H81.75C82.6918 59.0625 83.4531 58.3291 83.4531 57.4219C83.4531 56.5146 82.6918 55.7812 81.75 55.7812H74.9375C73.9957 55.7812 73.2344 56.5146 73.2344 57.4219C73.2344 58.3291 73.9957 59.0625 74.9375 59.0625ZM30.6562 4.92188C29.7144 4.92188 28.9531 5.65523 28.9531 6.5625V8.20312H27.25C26.3082 8.20312 25.5469 8.93648 25.5469 9.84375C25.5469 10.751 26.3082 11.4844 27.25 11.4844H28.9531V13.125C28.9531 14.0323 29.7144 14.7656 30.6562 14.7656C31.5981 14.7656 32.3594 14.0323 32.3594 13.125V11.4844H34.0625C35.0043 11.4844 35.7656 10.751 35.7656 9.84375C35.7656 8.93648 35.0043 8.20312 34.0625 8.20312H32.3594V6.5625C32.3594 5.65523 31.5981 4.92188 30.6562 4.92188Z" fill="#2774AC"/>
</g>
<defs>
<clipPath id="clip0_137_112">
<rect width="109" height="105" fill="white"/>
</clipPath>
</defs>
</svg>
