<svg width="93" height="81" viewBox="0 0 93 81" fill="none" xmlns="http://www.w3.org/2000/svg">
<g clip-path="url(#clip0_137_116)">
<path d="M83.7363 27.0527C82.7333 27.0527 81.9199 27.761 81.9199 28.6348V31.7988C81.9199 34.4158 84.3644 36.5449 87.3691 36.5449C90.3738 36.5449 92.8184 34.4158 92.8184 31.7988V28.6348C92.8184 27.761 92.005 27.0527 91.002 27.0527H89.1855C89.1839 21.894 89.1979 22.2323 89.1556 22.0268C89.043 21.4802 88.6163 21.0472 88.0712 20.8472C87.9878 20.8154 59.8063 10.0769 59.3625 9.90779L52.5601 0.872648C52.2244 0.426832 51.6531 0.158203 51.041 0.158203H41.959C41.3516 0.158203 40.7845 0.422561 40.4477 0.862682L33.4776 9.96885C2.63924 21.7195 4.78605 20.8664 4.48471 21.0799C4.08274 21.3653 3.81445 21.8113 3.81445 22.3066V27.0527H1.99805C0.994846 27.0527 0.181641 27.761 0.181641 28.6348V31.7988C0.181641 34.4158 2.62616 36.5449 5.63086 36.5449C8.63556 36.5449 11.0801 34.4158 11.0801 31.7988V28.6348C11.0801 27.761 10.2669 27.0527 9.26367 27.0527H7.44727V23.8887H32.877V30.7642C2.73006 42.2513 4.78405 41.4342 4.48471 41.6463C4.05622 41.9506 3.81445 42.409 3.81445 42.873V47.6191H1.99805C0.994846 47.6191 0.181641 48.3274 0.181641 49.2012V52.3652C0.181641 54.9822 2.62616 57.1113 5.63086 57.1113C8.63556 57.1113 11.0801 54.9822 11.0801 52.3652V49.2012C11.0801 48.3274 10.2669 47.6191 9.26367 47.6191H7.44727V44.4551H31.4545C25.2306 53.3254 18.5544 62.8405 13.6943 69.7676H5.63086C4.62766 69.7676 3.81445 70.4759 3.81445 71.3496V79.2598C3.81445 80.1335 4.62766 80.8418 5.63086 80.8418H23.7949C24.7981 80.8418 25.6113 80.1335 25.6113 79.2598V71.3496C25.6113 71.0476 25.5125 70.7665 25.344 70.5265L46.3442 65.667L67.6421 70.5466C67.4822 70.7821 67.3887 71.0561 67.3887 71.3496V79.2598C67.3887 80.1335 68.2021 80.8418 69.2051 80.8418H87.3691C88.3722 80.8418 89.1855 80.1335 89.1855 79.2598V71.3496C89.1855 70.4759 88.3722 69.7676 87.3691 69.7676H79.3059C78.6809 68.8769 62.5423 45.8757 61.5455 44.4551H85.5527V47.6191H83.7363C82.7333 47.6191 81.9199 48.3274 81.9199 49.2012V52.3652C81.9199 54.9822 84.3644 57.1113 87.3691 57.1113C90.3738 57.1113 92.8184 54.9822 92.8184 52.3652V49.2012C92.8184 48.3274 92.005 47.6191 91.002 47.6191H89.1855C89.1852 46.5805 89.187 42.9855 89.1837 42.8428C89.1703 42.2129 88.7276 41.6542 88.071 41.4136C85.2458 40.3371 62.9595 31.845 60.123 30.7642V23.8887H85.5527V27.0527H83.7363ZM40.0338 25.4707L46.5 21.1385L52.9662 25.4707H40.0338ZM52.9662 28.6348L46.5 32.967L40.0338 28.6348H52.9662ZM40.0338 12.8145H52.9662L46.5 17.1467L40.0338 12.8145ZM32.877 19.4522L26.6091 16.0397L32.877 13.6513V19.4522ZM36.5098 14.4454L43.5209 19.1426L36.5098 23.8398V14.4454ZM36.5098 30.2657L43.5209 34.9629L36.5098 39.6601C36.5098 36.1355 36.5098 33.6058 36.5098 30.2657ZM46.5 36.9588L52.9662 41.291H40.0338L46.5 36.9588ZM35.712 44.4551H55.0051L45.6868 48.1854L35.6927 44.4823L35.712 44.4551ZM41.2262 49.971L28.1765 55.195L33.7783 47.2113L41.2262 49.971ZM45.7438 51.6448L63.8312 58.3466L46.3396 62.3942L28.8827 58.3947L45.7438 51.6448ZM50.2044 49.8591L58.6948 46.4603L64.9002 55.3042L50.2044 49.8591ZM56.4902 39.6601L49.4791 34.9629L56.4902 30.2655C56.4902 33.6033 56.4902 36.1349 56.4902 39.6601ZM49.4791 19.1426L56.4902 14.4454V23.8399L49.4791 19.1426ZM60.123 13.6513L66.3909 16.0397L60.123 19.452V13.6513ZM42.9311 3.32227H50.0602L54.8244 9.65039H38.0875L42.9311 3.32227ZM22.5774 17.576L28.3606 20.7246H14.3144L22.5774 17.576ZM32.877 40.0186L26.6091 36.6061L32.877 34.2178V40.0186ZM22.5774 38.1425L28.3606 41.291H14.3144L22.5774 38.1425ZM18.6254 68.8073L24.3625 60.6307L39.2353 64.0383L18.6254 68.8073ZM68.5635 60.5253L74.3829 68.8193L53.4485 64.0231L68.5635 60.5253ZM64.6394 41.291L70.4226 38.1425L78.6856 41.291H64.6394ZM66.3909 36.6061L60.123 40.0184V34.2178L66.3909 36.6061ZM64.6394 20.7246L70.4226 17.576L78.6856 20.7246H64.6394Z" fill="#2774AC"/>
</g>
<defs>
<clipPath id="clip0_137_116">
<rect width="93" height="81" fill="white"/>
</clipPath>
</defs>
</svg>
