<svg width="133" height="97" viewBox="0 0 133 97" fill="none" xmlns="http://www.w3.org/2000/svg">
<path d="M66.303 37.6145C65.0806 37.6188 63.8669 37.7643 62.707 38.0456C61.877 33.774 61.4983 29.4621 61.5741 25.1482C61.6186 18.4023 63.2858 11.7145 66.5 5.38892C69.7142 11.7145 71.3814 18.4023 71.4259 25.1482C71.4705 29.4879 71.0588 33.8237 70.1944 38.1174C68.9459 37.7897 67.6299 37.6196 66.303 37.6145ZM113.641 64.4332C107.659 59.2295 100.484 54.823 92.435 51.41C87.643 49.3671 82.6643 47.5666 77.5341 46.0211C77.4309 48.0467 76.2882 49.97 74.3322 51.41C78.5216 53.6805 82.8975 55.7621 87.4352 57.6432C95.5662 60.995 104.433 63.2924 113.641 64.4332ZM55.0719 46.1648C50.0854 47.682 45.2395 49.434 40.565 51.41C32.5159 54.823 25.3406 59.2295 19.3589 64.4332C28.5639 63.3036 37.4305 61.0184 45.5648 57.6791C50.019 55.8292 54.3202 53.7899 58.4461 51.5717C56.4252 50.145 55.2197 48.2133 55.0719 46.1648ZM66.7463 44.656C66.7602 44.7395 66.7602 44.8239 66.7463 44.9074C67.1785 44.7371 67.5368 44.482 67.7807 44.171C67.2863 44.1559 66.7971 44.2498 66.3769 44.4404C66.5156 44.4968 66.6404 44.5696 66.7463 44.656ZM66.5 44.4404C66.0798 44.2498 65.5906 44.1559 65.0961 44.171C65.3401 44.482 65.6984 44.7371 66.1306 44.9074C66.1748 44.725 66.3056 44.5597 66.5 44.4404ZM66.1306 44.9074C66.1148 45.262 66.2434 45.612 66.5 45.9134C66.7566 45.612 66.8852 45.262 66.8694 44.9074C66.7524 44.943 66.6268 44.9613 66.5 44.9613C66.3732 44.9613 66.2476 44.943 66.1306 44.9074ZM66.5 44.4404C66.3056 44.5597 66.1748 44.725 66.1306 44.9074C66.2476 44.943 66.3732 44.9613 66.5 44.9613C66.6268 44.9613 66.7524 44.943 66.8694 44.9074C66.8252 44.725 66.6944 44.5597 66.5 44.4404ZM66.303 53.8889C65.1429 53.8833 63.99 53.7563 62.8794 53.5117L58.6924 91.6111H74.3076L70.0959 53.4039C68.8817 53.7302 67.5969 53.8945 66.303 53.8889ZM73.6919 45.7517C73.7162 44.6607 73.2933 43.5892 72.4773 42.6746C71.6613 41.76 70.4894 41.0439 69.1119 40.6182C67.7343 40.1924 66.2138 40.0763 64.7452 40.2849C63.2767 40.4934 61.9269 41.017 60.869 41.7886C59.8111 42.5602 59.0931 43.5445 58.8072 44.6156C58.5213 45.6867 58.6804 46.7956 59.2642 47.8003C59.848 48.805 60.8298 49.6596 62.0838 50.2548C63.3379 50.8499 64.807 51.1583 66.303 51.1406C67.2897 51.1598 68.2718 51.0346 69.1911 50.7724C70.1104 50.5102 70.9484 50.1163 71.6555 49.6139C72.3627 49.1116 72.9246 48.511 73.3082 47.8477C73.6918 47.1843 73.8892 46.4716 73.8889 45.7517H73.6919Z" fill="#2774AC"/>
</svg>
